<svg xmlns="http://www.w3.org/2000/svg" width="128" height="50" viewBox="0 0 128 50">
  <g id="Grupo_286" data-name="Grupo 286" transform="translate(-238 117)">
    <rect id="Rectángulo_155" data-name="Rectángulo 155" width="4" height="50" transform="translate(238 -117)" fill="#343434"/>
    <rect id="Rectángulo_172" data-name="Rectángulo 172" width="4" height="50" transform="translate(264 -117)" fill="#343434"/>
    <rect id="Rectángulo_176" data-name="Rectángulo 176" width="4" height="50" transform="translate(327 -117)" fill="#343434"/>
    <rect id="Rectángulo_169" data-name="Rectángulo 169" width="4" height="50" transform="translate(246 -117)" fill="#343434"/>
    <rect id="Rectángulo_179" data-name="Rectángulo 179" width="4" height="50" transform="translate(309 -117)" fill="#343434"/>
    <rect id="Rectángulo_171" data-name="Rectángulo 171" width="4" height="50" transform="translate(272 -117)" fill="#343434"/>
    <rect id="Rectángulo_177" data-name="Rectángulo 177" width="4" height="50" transform="translate(335 -117)" fill="#343434"/>
    <rect id="Rectángulo_181" data-name="Rectángulo 181" width="2" height="50" transform="translate(364 -117)" fill="#343434"/>
    <rect id="Rectángulo_182" data-name="Rectángulo 182" width="2" height="50" transform="translate(303 -117)" fill="#343434"/>
    <rect id="Rectángulo_156" data-name="Rectángulo 156" width="6" height="50" transform="translate(254 -117)" fill="#343434"/>
    <rect id="Rectángulo_178" data-name="Rectángulo 178" width="6" height="50" transform="translate(317 -117)" fill="#343434"/>
    <rect id="Rectángulo_170" data-name="Rectángulo 170" width="6" height="50" transform="translate(280 -117)" fill="#343434"/>
    <rect id="Rectángulo_175" data-name="Rectángulo 175" width="6" height="50" transform="translate(343 -117)" fill="#343434"/>
    <rect id="Rectángulo_173" data-name="Rectángulo 173" width="9" height="50" transform="translate(290 -117)" fill="#343434"/>
    <rect id="Rectángulo_174" data-name="Rectángulo 174" width="9" height="50" transform="translate(353 -117)" fill="#343434"/>
  </g>
</svg>
