<svg xmlns="http://www.w3.org/2000/svg" viewBox="0 0 119.88 114.78"><defs><style>.cls-1{fill:#cece06;}</style></defs><g id="Capa_2" data-name="Capa 2"><g id="Capa_1-2" data-name="Capa 1"><path class="cls-1" d="M58.71,0C76.05.4,91.85,1.05,107.2,5.44A42.3,42.3,0,0,1,115.86,9c5.29,2.87,5.35,6.76,0,9.55a53.22,53.22,0,0,1-11.67,4.35C87.62,27,70.72,27.57,53.76,27.32c-4.43-.06-7.59,2-8.76,5.55-1.8,5.5,1.77,10.56,7.79,11.26,5.39.63,10.8,1.3,16.14,2.31s10.75,2.63,15.2,6.15c4,3.13,4.14,6.93-.12,9.67A40.53,40.53,0,0,1,72.09,67.6,179.66,179.66,0,0,1,52.7,70.76c-5.9.79-9.48,5.76-7.72,11.12,1.13,3.45,4.38,5.62,8.5,5.68,7.67.13,15.37,0,23,.48,11.85.73,23.64,2,34.88,6.19a25.59,25.59,0,0,1,6.27,3.36c3,2.2,3,5.21-.09,7.15a42.65,42.65,0,0,1-10.1,4.6c-13.17,4-26.8,4.92-40.46,5.32-16.21.46-32.37-.25-48.27-3.71a91,91,0,0,1-13.57-4.4c-2.38-.93-5-2.37-5-5.44S2.76,96.91,5,95.77c6.26-3.17,13.07-4.53,19.92-5.67,2.79-.47,5.62-.74,8.4-1.27A9.23,9.23,0,0,0,40.9,82c1-3.41.43-6.71-2.41-8.94a12.36,12.36,0,0,0-5.85-2.34c-7.94-1-15.88-1.88-23.32-5a29.58,29.58,0,0,1-6.9-4c-3.26-2.59-3.11-6,.05-8.75a26.86,26.86,0,0,1,12.26-5.7C20.82,46,27,45.14,33.22,44.19c3.94-.6,7-2.88,7.76-6.42.89-3.85.15-7.39-3.14-9.83A11.51,11.51,0,0,0,32.94,26c-8.25-1.3-16.56-2.28-24.41-5.36A28.37,28.37,0,0,1,2.27,17.3c-3-2.18-3.07-5.14,0-7.12a41.09,41.09,0,0,1,9.43-4.45c9.87-3.13,20.11-4.28,30.39-5C48.15.36,54.19.2,58.71,0Z"/></g></g></svg>