<svg xmlns="http://www.w3.org/2000/svg" width="134.798" height="202.013" viewBox="0 0 134.798 202.013">
  <g id="Grupo_69" data-name="Grupo 69" transform="translate(-1602.066 -370.114)">
    <path id="Trazado_48" data-name="Trazado 48" d="M1628.847,423.458c22.1,17.108,44.082,17.147,66.291-.077-17.1,21.954-17.144,43.757-.164,65.956-21.9-16.9-43.68-16.958-65.634-.309,7.934-9.494,12.523-20.3,12.429-32.784C1641.675,443.718,1637.143,432.86,1628.847,423.458Z" transform="translate(41.625 82.79)" fill="#fff"/>
    <path id="Trazado_49" data-name="Trazado 49" d="M1695.125,436.41c-20.092-17.491-47.125-16.61-66.2-.087,17.063-22.385,17.063-44.135.107-66.066,25.788,17.1,40.8,17.073,65.958-.143C1677.851,392.333,1677.894,414.241,1695.125,436.41Z" transform="translate(41.739)" fill="#fff"/>
    <path id="Trazado_50" data-name="Trazado 50" d="M1602.819,463.08c17.612-20.421,15.985-47.555-.753-66.5,21.768,17.157,43.241,17.64,65.294,1.944-7.257,9.5-11.492,20-11.341,32.1.154,12.031,4.485,22.4,11.97,31.783-9.681-7.806-20.483-12.194-32.866-12.031C1622.829,450.536,1612.17,455.031,1602.819,463.08Z" transform="translate(0 41.135)" fill="#fff"/>
  </g>
</svg>
