<svg xmlns="http://www.w3.org/2000/svg" viewBox="0 0 2.44 2.44"><defs><style>.cls-1{fill:#696969;}</style></defs><g id="Capa_2" data-name="Capa 2"><g id="Capa_1-2" data-name="Capa 1"><path class="cls-1" d="M1.22,0a1.22,1.22,0,0,0,0,2.44A1.22,1.22,0,0,0,1.22,0m.55.94V1a.8.8,0,0,1-.8.8.78.78,0,0,1-.43-.13H.6A.57.57,0,0,0,1,1.54a.3.3,0,0,1-.26-.2H.82a.29.29,0,0,1-.23-.28h0a.28.28,0,0,0,.13,0A.26.26,0,0,1,.59.86a.33.33,0,0,1,0-.14A.8.8,0,0,0,1.21,1s0,0,0-.06a.28.28,0,0,1,.49-.2A.64.64,0,0,0,1.87.69a.3.3,0,0,1-.12.15l.16,0a.93.93,0,0,1-.14.14"/></g></g></svg>