<svg xmlns="http://www.w3.org/2000/svg" viewBox="0 0 2.36 2.36"><defs><style>.cls-1{fill:#696969;}</style></defs><g id="Capa_2" data-name="Capa 2"><g id="Capa_1-2" data-name="Capa 1"><polygon class="cls-1" points="1.04 1.4 1.42 1.18 1.04 0.96 1.04 1.4"/><path class="cls-1" d="M1.18,0A1.18,1.18,0,1,0,2.36,1.18,1.18,1.18,0,0,0,1.18,0m.73,1.18a1.9,1.9,0,0,1,0,.35.15.15,0,0,1-.13.13,4.4,4.4,0,0,1-.57,0,4.62,4.62,0,0,1-.58,0,.19.19,0,0,1-.13-.13,1.9,1.9,0,0,1,0-.35,2,2,0,0,1,0-.36A.21.21,0,0,1,.6.69a4.62,4.62,0,0,1,.58,0,4.4,4.4,0,0,1,.57,0,.17.17,0,0,1,.13.13,1.37,1.37,0,0,1,0,.36"/></g></g></svg>