<svg xmlns="http://www.w3.org/2000/svg" viewBox="0 0 2.32 2.32"><defs><style>.cls-1{fill:#696969;}</style></defs><g id="Capa_2" data-name="Capa 2"><g id="Capa_1-2" data-name="Capa 1"><path class="cls-1" d="M1.16,1.39a.23.23,0,0,0,.23-.23.33.33,0,0,0,0-.14A.26.26,0,0,0,1.16.93.25.25,0,0,0,1,1a.23.23,0,0,0,0,.14.23.23,0,0,0,.23.23"/><polygon class="cls-1" points="1.67 0.88 1.67 0.65 1.64 0.65 1.44 0.65 1.44 0.88 1.67 0.88"/><path class="cls-1" d="M1.16,0A1.16,1.16,0,1,0,2.32,1.16,1.16,1.16,0,0,0,1.16,0m.66,1v.54a.26.26,0,0,1-.26.26H.75A.26.26,0,0,1,.5,1.56V.75A.25.25,0,0,1,.75.5h.81a.26.26,0,0,1,.26.25Z"/><path class="cls-1" d="M1.52,1.16a.36.36,0,1,1-.72,0A.68.68,0,0,1,.82,1H.63v.54a.12.12,0,0,0,.12.13h.81a.13.13,0,0,0,.13-.13V1h-.2a.35.35,0,0,1,0,.14"/></g></g></svg>